Coordinates

Units are S.I. units (second, meters, Newtons, ...)
If the header above contains a line with 'inDegrees', this indicates whether rotational values are in degrees (yes) or radians (no).

inDegrees=no
nColumns=21
nRows=27
DataType=double
version=3
OpenSimVersion=4.6-2026-03-31-d6972f9e6
endheader
time	/jointset/ground_pelvis/pelvis_tilt/value	/jointset/ground_pelvis/pelvis_list/value	/jointset/ground_pelvis/pelvis_rotation/value	/jointset/ground_pelvis/pelvis_tx/value	/jointset/ground_pelvis/pelvis_ty/value	/jointset/ground_pelvis/pelvis_tz/value	/jointset/hip_r/hip_flexion_r/value	/jointset/hip_r/hip_adduction_r/value	/jointset/hip_r/hip_rotation_r/value	/jointset/walker_knee_r/knee_angle_r/value	/jointset/patellofemoral_r/knee_angle_r_beta/value	/jointset/ankle_r/ankle_angle_r/value	/jointset/subtalar_r/subtalar_angle_r/value	/jointset/hip_l/hip_flexion_l/value	/jointset/hip_l/hip_adduction_l/value	/jointset/hip_l/hip_rotation_l/value	/jointset/walker_knee_l/knee_angle_l/value	/jointset/patellofemoral_l/knee_angle_l_beta/value	/jointset/ankle_l/ankle_angle_l/value	/jointset/subtalar_l/subtalar_angle_l/value
144.996	-0.1009493609121985	-0.09703739418223695	-0.1110312722825833	0.9436380587941663	0.9609259767601044	-0.3051311147259961	0.2766882775303931	0.1830643544025612	-0.01968707583442589	0.7224827568986371	0.7224827571051889	0.4474698891805743	-0.2011805439490147	0.5476633416685696	-0.2293729328837875	0.05285693268303331	1.623775656483677	1.623775656803287	-0.2467891696671597	-0.4745480544143424
145	-0.09924928451957969	-0.09416429615502131	-0.1077452621058745	0.9435070557535996	0.9623765989685042	-0.3054091753014676	0.2538068837792701	0.1777042519606596	-0.01988418214656249	0.7053775348764084	0.7053775350015952	0.4485084589676444	-0.1964728685187048	0.5617784705141258	-0.2243611849030998	0.05593687902929925	1.612581425102529	1.612581425314749	-0.2434757242307314	-0.4790513155128001
145.004	-0.09765881715044902	-0.09106076467277446	-0.1048425224170744	0.9434335903718871	0.963978135304396	-0.3056439968341959	0.2306445962681948	0.1723168120264117	-0.01938023648984203	0.6873248440228753	0.6873248440521038	0.447552152842769	-0.1924131932261374	0.5749788126042696	-0.2192573205510642	0.05783043104364787	1.59947542323616	1.599475423342541	-0.2405161991480289	-0.4837507890983492
145.008	-0.09625586583682896	-0.08771261423292742	-0.1023608498655991	0.943413597610568	0.9657118400685145	-0.3058339416426147	0.2073733080327218	0.1668780282430912	-0.01818428739596774	0.6684633875716437	0.6684633874953412	0.4445460138861084	-0.1889755243646917	0.587333307504455	-0.2140881696675407	0.05855816678210516	1.584507083855714	1.584507083857567	-0.2378840659410435	-0.488604736062566
145.012	-0.09510868210872826	-0.08410339499599732	-0.1003217211312465	0.9434432187348207	0.9675591450970583	-0.3059793478753365	0.1841533530141498	0.161349625907861	-0.01633220998089005	0.648930391942152	0.6489303917574694	0.4394638076514111	-0.1861070049925229	0.5989089494272863	-0.2088651872213446	0.05815938065525277	1.567724587562794	1.567724587461189	-0.2355539586914581	-0.4935709763284546
145.016	-0.09427397354740971	-0.0802159145999696	-0.09873058834873218	0.9435189458917418	0.9695021198832834	-0.3060824603746584	0.1611305185216902	0.1556824074092162	-0.01388576552982504	0.628859938222615	0.6288599379342295	0.4323072335636686	-0.1837290121765138	0.6097674779233142	-0.203585744707501	0.05668976545474564	1.549173608352609	1.549173608148741	-0.2335012282248929	-0.4986072695232465
145.02	-0.09379529937574387	-0.0760338318730408	-0.09757765032059151	0.9436377606363103	0.9715239045128289	-0.3061473017126157	0.1384332147927941	0.1498200367688146	-0.01093085649113675	0.6083810141422998	0.608381013762247	0.4231043414567109	-0.1817390163805913	0.6199622934656313	-0.1982349413004038	0.05421895183646434	1.528896312323119	1.528896312019046	-0.2317014639083509	-0.503671356753326
145.024	-0.09370187723559095	-0.0715432233852949	-0.09683905793168217	0.9437972579374168	0.9736090857061297	-0.306179487377878	0.1161700299377027	0.1437030466473664	-0.007575014265595261	0.5876154778683659	0.5876154774150162	0.4119072832267222	-0.1800132160299595	0.629535820414363	-0.1927878098643078	0.05082798536950561	1.506930681448809	1.506930681048517	-0.230129964336776	-0.5087205755049627
145.028	-0.0940080182422716	-0.06673400682997883	-0.09647854365520363	0.9439957456000586	0.9757439780902964	-0.3061859867953586	0.09442804374888285	0.1372728340160086	-0.003944179581104425	0.5666762221773579	0.5666762216736804	0.3987895706945107	-0.1784098648133324	0.6385176328077509	-0.187211796685218	0.04660677797196722	1.483310234669176	1.483310234179816	-0.2287610877981271	-0.5137109471087372
145.032	-0.09471336089324091	-0.06160112619873918	-0.09644945031604288	0.9442323106832622	0.9779167805884947	-0.3061748341779187	0.07327221125974615	0.1304754305012381	-0.000178865859347187	0.5456658008819366	0.5456658003532211	0.3838430191804131	-0.1767731688067364	0.6469235968189748	-0.1814694028482043	0.04165156139266577	1.458064201007376	1.458064200440496	-0.2275674236928057	-0.5185956909693998
145.036	-0.09580389780583312	-0.05614545441903922	-0.09669707577772681	0.9445068490641765	0.9801176009760088	-0.3061547994280984	0.05274586931381006	0.1232648832353891	0.003570168052122078	0.5246756387530149	0.5246756382243229	0.3671745341763383	-0.1749376534421686	0.6547560702663217	-0.1755208812787058	0.03606239264817777	1.431218157918894	1.4312181572914	-0.2265188067893188	-0.5233232452134119
145.04	-0.09725365201056388	-0.05037440638418851	-0.09716120549734669	0.9448200575800287	0.9823383603712404	-0.306135034220518	0.03287221922026177	0.1156061278329464	0.007146580993096398	0.503785829656727	0.5037858291503672	0.3489028724269387	-0.1727329294114578	0.6620050303435576	-0.1693268837838089	0.02994077902993544	1.402795112010699	1.402795111345245	-0.225581266123755	-0.5278349788427005
145.044	-0.09902682183811878	-0.04430226959903771	-0.09777869854106187	0.9451733895885341	0.984572597028601	-0.3061247098666725	0.0136565824919385	0.1074772672289468	0.01039327475138946	0.4830654857235039	0.4830654852567945	0.3291554802219664	-0.1699887915503923	0.6686499438917762	-0.1628509573490326	0.02338748559460049	1.372816976445004	1.372816975769507	-0.2247160227226469	-0.5320628294149585
145.048	-0.1010802116576652	-0.03795027055227938	-0.09848600262398798	0.945568976204703	0.9868151927447395	-0.3061326634795353	-0.004910780739973434	0.0988712024384921	0.01315719919305625	0.4625735868768904	0.462573586460522	0.3080654768061843	-0.1665405767954246	0.6746621774733326	-0.1560618033606535	0.01650057593209898	1.341306379009686	1.341306378355877	-0.2238786493448353	-0.5359271157664874
145.052	-0.1033657700873463	-0.03134640727177208	-0.09922148269864833	0.9460095168495922	0.9890620479330636	-0.3061670687806206	-0.02285150361075006	0.08979659757040846	0.01529396022593824	0.442360268064168	0.4423602677015586	0.2857688255024474	-0.1622346972831801	0.680007738321631	-0.1489352306046508	0.009373730195639083	1.308288720337581	1.308288719738736	-0.223018492490804	-0.5393347621372384
145.056	-0.1058330812319258	-0.02452507943590305	-0.09992745994307652	0.9464981435247272	0.9913097306941667	-0.3062351469718579	-0.04019578545578168	0.08027818631589827	0.01667205962411855	0.4224684738712882	0.422468473559163	0.2624017310626068	-0.1569342477222077	0.6846501581523315	-0.1414557447853969	0.002094873550760254	1.273794398669941	1.273794398158105	-0.2220784303548247	-0.5421781276302411
145.06	-0.1084316883271105	-0.01752653700602509	-0.1005518792899784	0.947038263973124	0.9935551226262163	-0.3063429306020757	-0.05697906055251467	0.07035643727382107	0.01717659760318245	0.4029359057928542	0.4029359055228469	0.2380983033480266	-0.1505245656131649	0.688553363030367	-0.1336177255976758	-0.005254871998217169	1.237861116290596	1.23786111589363	-0.2209950156409781	-0.5443345905268566
145.064	-0.1111131495801269	-0.01039616621055649	-0.1010495495114787	0.9476333896766697	0.9957950828167763	-0.3064950900355412	-0.07323880096878778	0.06008661277875908	0.01671229355946794	0.383797177993103	0.3837971777537883	0.2129885141345766	-0.1429186115310767	0.6916843857892057	-0.1254261572576725	-0.01260191327760494	1.200536175237464	1.20053617497627	-0.2196990459757069	-0.5456670176895826
145.068	-0.1138327409140075	-0.003183643443776517	-0.101382926444713	0.9482869546072237	0.9980261501623182	-0.3066948288428882	-0.08901158650344804	0.04953728852407516	0.01520573822368506	0.3650860846220431	0.3650860844007442	0.187196450256101	-0.1340620318504722	0.6940157863945301	-0.1168969019414378	-0.01988058954047884	1.161878662843317	1.161878662729638	-0.2181166070405437	-0.546025241288013
145.072	-0.1165507482432671	0.004058006474433253	-0.1015224380147594	0.9490021301801009	1.000244300523521	-0.3069438510187179	-0.1043305529533413	0.03878842511653632	0.01260684765000474	0.3468378727300935	0.346837872514089	0.1608388500644558	-0.1239377598006232	0.6955276718522025	-0.1080565248167567	-0.02703325644340151	1.121961427668694	1.121961427703958	-0.2161706232743849	-0.5452486349219734
145.076	-0.119233326616457	0.01127342093406148	-0.1014463768103656	0.9497816422520616	1.00244477005452	-0.3072423992835425	-0.1192232951726009	0.02792908311133973	0.008889520467057183	0.3290914132539273	0.329091413031062	0.1340239060454782	-0.1125700027323148	0.696209242336758	-0.09894168796675507	-0.03401006924957783	1.080872752192562	1.080872752368159	-0.2137829223242743	-0.5431698207782989
145.08	-0.1218529283856113	0.01840596001537144	-0.1011404066936231	0.9506275971122712	1.004621951172182	-0.3075893600349427	-0.1337102733727022	0.0170548697629628	0.004051520921045946	0.3118911729671053	0.3118911727260038	0.1068503195661169	-0.1000274545106547	0.6960598178783453	-0.08959814365815616	-0.04076850546707723	1.038717638549711	1.038717638848798	-0.2108767821761179	-0.5396194682028161
145.084	-0.1243883217299982	0.02539879447473111	-0.1005967435187391	0.9515413239966456	1.006769363123789	-0.3079824269303264	-0.1478037461902968	0.006265212001699207	-0.001886362520983423	0.2952889111779217	0.2952889109080348	0.07940659997759675	-0.08642556975154192	0.6950893254035524	-0.08007938071075989	-0.04727268194330111	0.9956186360076815	0.9956186364082716	-0.2073798922860736	-0.5344320738085044
145.088	-0.1268242488523572	0.03219600040341836	-0.09981308162381745	0.9525232410065578	1.0088796941081	-0.308418311906097	-0.1615072162662151	-0.004339450299833405	-0.008881810274271915	0.2793450452493733	0.2793450449410544	0.05177060562181066	-0.07192775112231388	0.6933182624753462	-0.07044499267539178	-0.05349252985013379	0.9517161525639668	0.9517161530427598	-0.2032276201497532	-0.5274525383525666
145.092	-0.1291507923620757	0.03874364739825618	-0.09879135273383305	0.953572749912682	1.010944907671278	-0.3088929899104024	-0.1748153485730405	-0.014660469011052	-0.01687302725422017	0.2641296345719665	0.2641296342166224	0.02400932855601792	-0.05674531346845677	0.6907771821562207	-0.06075884088528117	-0.05940289825665558	0.9071682112486739	0.9071682117849091	-0.1983664392718636	-0.5185432901660803
145.096	-0.1313625029857232	0.04499086565692632	-0.09753641961823938	0.9546881644721477	1.01295640478901	-0.309401962017641	-0.1877143437642745	-0.02460371807826258	-0.02578125028040762	0.2497229190698703	0.2497229186600626	-0.003821068986671563	-0.04113607465289498	0.6875057346743116	-0.05108709361556333	-0.06498266393722772	0.8621496343687393	0.8621496349473068	-0.1927573573657534	-0.5075916728942079
145.1	-0.133457320980971	0.05089087222741347	-0.09605481074244467	0.955866676730261	1.014905232596981	-0.3099405213356212	-0.2001827762472448	-0.03408218318581281	-0.03551357708551948	0.2362153403260527	0.2362153398555084	-0.03167495187456873	-0.02540141208953984	0.6835512874421138	-0.04149622765991061	-0.07021392495531019	0.816850660656867	0.8168506612701196	-0.1863791763266173	-0.4945172949565945
